<?xml version="1.0" standalone="no"?>
<!DOCTYPE svg PUBLIC "-//W3C//DTD SVG 20010904//EN"
 "http://www.w3.org/TR/2001/REC-SVG-20010904/DTD/svg10.dtd">
<svg version="1.0" xmlns="http://www.w3.org/2000/svg"
 width="512.000000pt" height="512.000000pt" viewBox="0 0 512.000000 512.000000"
 preserveAspectRatio="xMidYMid meet">

<g transform="translate(0.000000,512.000000) scale(0.100000,-0.100000)"
fill="#000000" stroke="none">
<path d="M1645 4570 c-154 -21 -295 -112 -380 -245 -97 -152 -879 -1522 -898
-1572 -31 -84 -31 -273 1 -353 12 -31 221 -402 465 -825 404 -701 449 -776
509 -835 74 -75 164 -124 266 -145 101 -22 1805 -21 1907 0 105 22 189 68 264
144 60 61 108 139 513 841 245 426 455 800 465 830 13 41 18 85 18 175 -1 105
-4 127 -26 180 -14 33 -225 406 -469 828 -386 667 -452 775 -502 825 -67 66
-127 103 -218 135 l-65 22 -895 1 c-492 1 -922 -2 -955 -6z m1274 -535 c60
-33 109 -86 143 -154 21 -43 23 -61 26 -247 l3 -202 50 -4 c30 -3 63 -15 87
-32 21 -14 149 -138 284 -274 199 -200 248 -255 257 -287 9 -29 11 -235 9
-770 l-3 -730 -26 -55 c-37 -80 -81 -125 -157 -162 l-67 -33 -620 0 -620 0
-67 33 c-73 36 -123 86 -160 161 -21 42 -23 62 -26 249 l-4 202 -209 0 c-254
0 -290 9 -380 99 -101 101 -94 26 -94 1081 l0 915 28 57 c33 68 119 150 179
171 37 14 131 15 678 14 l635 -2 54 -30z"/>
<path d="M1605 3906 c-16 -8 -41 -24 -54 -36 -53 -51 -51 -22 -51 -969 0 -596
3 -889 11 -908 15 -42 68 -92 109 -103 19 -5 119 -10 222 -10 l187 0 3 652 c3
645 3 654 25 700 30 66 96 133 162 165 l56 28 333 3 334 3 -4 183 c-3 180 -3
183 -30 224 -54 81 -19 77 -683 79 -480 2 -596 0 -620 -11z m1024 -162 c41
-34 44 -92 6 -129 l-24 -25 -386 0 -386 0 -24 25 c-28 27 -34 88 -12 116 29
37 45 38 424 39 l371 0 31 -26z m-811 -350 l22 -25 0 -540 c0 -368 -3 -547
-11 -561 -6 -11 -26 -26 -45 -34 -29 -12 -39 -12 -68 0 -19 8 -39 23 -45 34
-8 14 -11 193 -11 559 0 478 2 541 16 561 34 48 102 51 142 6z"/>
<path d="M2269 3247 c-18 -12 -44 -38 -56 -56 l-23 -34 0 -894 c0 -989 -3
-936 66 -989 l37 -29 613 0 c603 0 613 0 640 21 15 11 37 33 48 48 21 27 21
38 24 716 l2 689 -31 -11 c-19 -6 -82 -9 -164 -6 -125 4 -137 6 -198 36 -75
37 -119 83 -156 162 -25 52 -26 64 -26 212 l0 158 -371 0 c-369 0 -371 0 -405
-23z m618 -109 c37 -37 37 -89 0 -126 l-27 -27 -190 0 -190 0 -27 27 c-47 47
-30 122 32 149 11 5 100 7 197 6 l178 -2 27 -27z m466 -538 c14 -11 28 -33 32
-49 7 -34 -15 -85 -44 -101 -13 -6 -171 -10 -440 -10 l-420 0 -26 23 c-15 13
-28 37 -32 59 -5 32 -1 41 25 68 l30 30 425 0 c410 0 425 -1 450 -20z m0 -288
c32 -30 41 -67 26 -104 -24 -57 -30 -58 -473 -58 -293 0 -412 3 -431 12 -29
13 -55 55 -55 87 0 26 45 79 73 84 12 3 205 4 429 3 l406 -1 25 -23z m8 -300
c16 -18 29 -41 29 -53 0 -36 -28 -76 -61 -88 -46 -16 -819 -15 -854 1 -27 12
-55 54 -55 82 0 30 23 65 54 80 27 14 87 16 444 13 l414 -2 29 -33z m-22 -267
c56 -28 63 -101 14 -147 l-25 -23 -425 0 -425 0 -29 33 c-43 48 -33 107 22
138 37 20 829 20 868 -1z"/>
<path d="M3202 3084 c3 -113 5 -123 30 -156 43 -57 81 -69 203 -66 l105 3
-170 170 -171 170 3 -121z"/>
</g>
</svg>
